<?xml version="1.0" encoding="UTF-8" standalone="no"?>
<!-- Created with Inkscape (http://www.inkscape.org/) -->

<svg
   xmlns:dc="http://purl.org/dc/elements/1.1/"
   xmlns:cc="http://creativecommons.org/ns#"
   xmlns:rdf="http://www.w3.org/1999/02/22-rdf-syntax-ns#"
   xmlns:svg="http://www.w3.org/2000/svg"
   xmlns="http://www.w3.org/2000/svg"
   xmlns:sodipodi="http://sodipodi.sourceforge.net/DTD/sodipodi-0.dtd"
   xmlns:inkscape="http://www.inkscape.org/namespaces/inkscape"
   id="svg2"
   version="1.1"
   inkscape:version="0.91 r13725"
   xml:space="preserve"
   width="779"
   height="250"
   viewBox="0 0 779 249.99999"
   sodipodi:docname="Logo Oney.svg"><metadata
     id="metadata8"><rdf:RDF><cc:Work
         rdf:about=""><dc:format>image/svg+xml</dc:format><dc:type
           rdf:resource="http://purl.org/dc/dcmitype/StillImage" /><dc:title></dc:title></cc:Work></rdf:RDF></metadata><defs
     id="defs6" /><sodipodi:namedview
     pagecolor="#ffffff"
     bordercolor="#666666"
     borderopacity="1"
     objecttolerance="10"
     gridtolerance="10"
     guidetolerance="10"
     inkscape:pageopacity="0"
     inkscape:pageshadow="2"
     inkscape:window-width="1280"
     inkscape:window-height="691"
     id="namedview4"
     showgrid="false"
     inkscape:zoom="0.44851463"
     inkscape:cx="372.04749"
     inkscape:cy="526.18127"
     inkscape:window-x="0"
     inkscape:window-y="1"
     inkscape:window-maximized="1"
     inkscape:current-layer="g10" /><g
     id="g10"
     inkscape:groupmode="layer"
     inkscape:label="Logo Oney"
     transform="matrix(1.25,0,0,-1.25,0,249.99995)"><path
       inkscape:connector-curvature="0"
       id="path160"
       style="fill:#8bbd06;fill-opacity:1;fill-rule:nonzero;stroke:none"
       d="m 77.60472,71.075001 c -27.664053,0 -50.182961,22.46664 -50.182961,51.130039 0,28.6634 22.518908,51.1837 50.182961,51.1837 27.47877,0 50.11171,-22.5203 50.11171,-51.1837 0,-28.663399 -22.63294,-51.130039 -50.11171,-51.130039 m 0,128.884719 C 34.077664,199.95972 0,165.83726 0,122.20504 0,78.626471 34.077664,44.450371 77.60472,44.450371 c 43.41303,0 77.49069,34.1761 77.49069,77.754669 0,43.63222 -34.07766,77.75468 -77.49069,77.75468"
       sodipodi:nodetypes="csssccsssc" /><path
       d="m 476.788,124.25721 c -0.25655,41.64711 -33.93514,75.52815 -75.13905,75.52815 -42.40111,0 -75.63786,-34.00175 -75.63786,-77.39254 0,-20.37422 7.81035,-39.715649 21.86328,-54.483259 14.3095,-14.94199 33.17977,-23.17753 53.2615,-23.17753 22.91797,0 55.0288,10.98519 70.2932,42.1568 l 0.39907,1.00597 -30.72834,0 -0.18528,-0.22801 c -8.25219,-9.8585 -23.83013,-16.5113 -38.66696,-16.5113 -18.84177,0 -41.44619,12.40693 -47.63177,40.413109 l 121.57361,0 c 0.27079,2.89719 0.5986,8.69156 0.5986,12.68861 m -121.2743,12.04481 c 3.73414,18.76467 21.72076,37.08672 45.90722,37.08672 24.14368,0 42.11606,-18.32205 45.80745,-37.08672 z"
       style="fill:#8bbd06;fill-opacity:1;fill-rule:nonzero;stroke:none"
       id="path7397"
       inkscape:connector-curvature="0"
       sodipodi:nodetypes="csscsccccsccccscc" /><path
       sodipodi:nodetypes="csccccsccccsc"
       inkscape:connector-curvature="0"
       id="path7399"
       style="fill:#8bbd06;fill-opacity:1;fill-rule:nonzero;stroke:none"
       d="m 240.75278,174.27399 c -27.39326,0 -41.31792,-14.66032 -41.31792,-43.68588 l 0,-85.923149 -28.13439,0 0,87.948509 c 0.2708,15.41144 3.00728,26.31614 9.30688,36.5502 7.45404,11.49487 25.1556,30.83629 60.14543,30.83629 34.9043,0 52.6629,-19.34142 60.10268,-30.83629 6.24259,-10.23406 9.06458,-21.13876 9.2356,-36.5502 l 0,-87.948509 -28.10587,0 0,85.923149 c 0,29.02556 -13.83915,43.68588 -41.23241,43.68588" /><path
       sodipodi:nodetypes="ccccccccccc"
       inkscape:connector-curvature="0"
       id="path7401"
       style="fill:#8bbd06;fill-opacity:1;fill-rule:nonzero;stroke:none"
       d="M 623.03263,199.95972 563.74234,55.502611 549.09079,19.757181 540.99539,-3.90625e-5 l -29.24608,0 22.68994,55.4758300625 -60.60152,144.483929 30.89937,0 44.36795,-108.617799 44.45346,108.617799 z" /></g></svg>