<svg
	xmlns:x="ns_extend;"
	xmlns:i="ns_ai;"
	xmlns:graph="ns_graphs;"
	xmlns="http://www.w3.org/2000/svg"
	xmlns:xlink="http://www.w3.org/1999/xlink" version="1.1" id="Layer_1" x="0px" y="0px" viewBox="0 0 271.4 50" style="enable-background:new 0 0 271.4 50;" xml:space="preserve">
	<style type="text/css">
  .st0{fill:#212225;}
 </style>
	<g>
		<path class="st0" d="M7.1,5.7C7.3,5.2,8.3,1.4,7.9,0h12.8c2.6,0,4.4,2.5,3.7,4.9l-3,11c-0.7,2.6-3.1,4.4-5.8,4.4H3.1L7.1,5.7z    M54.8,0H41.4c0.3,1.1-0.3,3.7-0.6,5l-4,14.4c-1.5,5.2-3.7,9.9-10.5,9.9H15.7c-5.9,0-11,3.9-12.6,9.6L0,50h17.7l3-10.7   c1.5-5.2,3.7-9.9,10.5-9.9h10.7c5.8,0,11-3.9,12.5-9.6l4.1-14.8C59.2,2.5,57.3,0,54.8,0L54.8,0z"></path>
		<path class="st0" d="M126.2,15.4c-0.1-0.1-0.1-0.1-0.1-0.2c-1.7-3.3-4.6-4.8-8.2-4.7c-3.3,0-6.2,1.3-8.4,3.8   c-3.8,4.1-5.2,9-4.4,14.4c0.7,4.6,4.5,8.1,9.1,8c3.8,0,6.8-1.7,9.2-4.5c0.1-0.1,0.2-0.2,0.4-0.4L123,36h7.4   c1.3-8.3,2.5-16.5,3.8-24.8h-7.4L126.2,15.4z M124.9,23.2c-0.4,3.3-2.7,6-5.8,6.7c-0.5,0.1-0.9,0.1-1.4,0.2c-3.6,0-6-2.9-5.3-6.6   c0.6-3.3,3.3-5.9,6.7-6.1C122.8,17,125.3,19.6,124.9,23.2z M239.7,11.2c-1.3,8.2-2.5,16.5-3.8,24.8h-7.4l0.5-3.6c0,0,0,0-0.1,0   c-0.1,0.1-0.2,0.3-0.3,0.4c-2.4,3.3-6.9,4.8-10.7,3.5c-2.7-0.9-4.1-3-4.7-5.7c-0.5-2.1-0.2-4.3,0.1-6.4c0.7-4.3,1.3-8.6,2-12.9   c0,0,0,0,0,0h7.4c-0.1,0.9-0.3,1.8-0.4,2.7c-0.6,3.6-1.1,7.3-1.7,10.9c-0.1,1-0.1,1.9,0.3,2.8c0.7,1.4,1.9,1.8,3.3,1.9   c2.8,0.1,5.3-2,5.8-4.7c0.3-1.7,0.6-3.4,0.8-5.1c0.4-2.7,1.3-8.5,1.3-8.5C234.6,11.2,239.7,11.2,239.7,11.2L239.7,11.2z M204.2,1.3   h7.4c-1.8,11.6-3.6,23.1-5.3,34.7h-7.4C200.6,24.4,202.4,12.9,204.2,1.3L204.2,1.3z M264,11.2l-0.7,4.3c-0.1-0.2-0.2-0.2-0.2-0.3   c-1.2-2.4-3.1-3.8-5.7-4.4c-3.3-0.7-6.4,0-9.1,2c-3.2,2.3-5,5.5-5.8,9.3c-0.6,2.8-0.7,5.5,0.3,8.2c1.2,3,3.3,4.9,6.5,5.4   c4,0.7,7.5-0.7,10.4-3.4c0.4-0.4,0.8-0.8,1.1-1.2c-0.1,0.7-0.2,1.4-0.3,2.1c-0.1,1.1-0.3,2.1-0.6,3.1c-0.5,1.9-1.7,3.3-3.5,4   c-2.8,1.1-5.6,0.9-8.3-0.6c-0.9-0.5-1.7-1.3-2.6-2c0,0,0,0,0,0l-4.5,5.4c2.4,2.2,6.1,3.9,9.5,4.1c3.6,0.3,7-0.4,10.2-2.1   c3.6-2,6-5,6.8-9.1c0.2-1,0.4-1.9,0.5-2.9c0.4-2.7,0.8-5.4,1.2-8.1c0.5-3.1,1-6.3,1.5-9.4c0.2-1.5,0.7-4.5,0.7-4.5   S266.2,11.2,264,11.2L264,11.2z M255,29.5c-2.7,0-4.6-1.4-5.2-3.9c-0.4-1.5-0.1-3,0.6-4.4c1.4-2.9,4.6-4.6,7.8-4.1   c2.6,0.5,4.3,2.6,4.2,5.3C262.1,26.3,258.8,29.5,255,29.5L255,29.5z M189.5,10.7c-3.8-0.7-7.1,0.3-10,2.9c-0.6,0.5-1.2,1.1-1.7,1.5   l0.6-3.9l-7.4,0c-0.5,3.3-5.3,34.7-5.4,35.4h7.4c0.8-4.9,1.5-9.9,2.3-14.8c0,0,0.1,0,0.1,0c0.1,0.1,0.1,0.2,0.2,0.3   c1.3,2.3,3.2,3.8,5.8,4.3c3.7,0.7,7.1-0.3,9.9-2.8c2.5-2.1,3.9-4.9,4.7-8c0.8-2.9,1-5.9,0.1-8.9C195.1,13.6,192.9,11.4,189.5,10.7   L189.5,10.7z M189,23.2c-0.4,3.3-2.7,6-5.8,6.6c-0.5,0.1-1,0.1-1.4,0.2c-3.6,0-5.9-2.9-5.2-6.5c0.6-3.4,3.3-5.9,6.7-6.2   C186.9,17,189.4,19.7,189,23.2z M94.9,10.7c-3.8-0.7-7.1,0.3-10,2.9c-0.6,0.5-1.2,1.1-1.7,1.5l0.6-3.9l-7.4,0   c-0.5,3.3-5.3,34.7-5.4,35.4h7.4c0.8-4.9,1.5-9.9,2.3-14.8c0,0,0.1,0,0.1,0c0.1,0.1,0.1,0.2,0.2,0.3c1.3,2.3,3.2,3.8,5.8,4.3   c3.7,0.7,7.1-0.3,9.9-2.8c2.5-2.1,3.9-4.9,4.7-8c0.8-2.9,1-5.9,0.1-8.9C100.5,13.6,98.4,11.4,94.9,10.7L94.9,10.7z M94.4,23.2   c-0.4,3.3-2.7,6-5.8,6.6c-0.5,0.1-1,0.1-1.4,0.2c-3.6,0-5.9-2.9-5.2-6.5c0.6-3.4,3.3-5.9,6.7-6.2C92.3,17,94.8,19.7,94.4,23.2z    M166.8,11.2l-16,35.4h-7.2c0.4-1,1.3-2.9,2.1-5c2-4.6,1-5.7-0.5-5.7h-4.1c-1,0-1.8-0.8-1.8-1.7l-1-23.1h7.5l0.9,20.9   c0.1,2.2,2.2,2.3,3.2,0l9.3-20.9H166.8z"></path>
	</g>
</svg>